# xmcd CD database file
#
# Track frame offsets:
#	150
#	12589
#	22941
#	36274
#	38726
#	50751
#	54880
#	71479
#	89318
#	91438
#	105865
#	109264
#	126060
#	132133
#	160700
#	164632
#	181482
#	182863
#	190008
#	193515
#	206840
#	225060
#	227516
#	244543
#	244902
#	261275
#	268257
#	282970
#
# Disc length: 3960 seconds
#
# Revision: 0
# Processed by: cddbd v1.5.1PL2 Copyright (c) Steve Scherf et al.
# Submitted via: CDex 1.51
#
DISCID=7d0f761c
DTITLE=Dave Frishberg - At the Jazz Bakery: Retromania
DYEAR=2005
DGENRE=Jazz
TTITLE0=Can't Take You Nowhere
TTITLE1=Useless Waltz
TTITLE2=Zoot Walks In
TTITLE3=spoken into
TTITLE4=Who Do You Think You Are, Jack Dempsey?
TTITLE5=spoken intro 2
TTITLE6=Walkin' On Wall Street
TTITLE7=My Attorney Bernie
TTITLE8=spoken intro 3
TTITLE9=Van Lingle Mungo
TTITLE10=spoken intro 4
TTITLE11=Dodger Blue
TTITLE12=spoken intro 5
TTITLE13=The Dear Departed Past
TTITLE14=spoken intro 6
TTITLE15=The Catbird Seat
TTITLE16=spoken intro 7
TTITLE17=Play Ball
TTITLE18=spoken intro 8
TTITLE19=Matty
TTITLE20=The Wife and The Kid
TTITLE21=spoken intro 9
TTITLE22=YOu'd Rather Have The Blues
TTITLE23=spoken intro 10
TTITLE24=Eloise
TTITLE25=spoken intro 11
TTITLE26=Gotta Get Me Some ZZZ
TTITLE27=Listen Here
EXTD=YEAR: 2005
EXTT0=
EXTT1=
EXTT2=
EXTT3=
EXTT4=
EXTT5=
EXTT6=
EXTT7=
EXTT8=
EXTT9=
EXTT10=
EXTT11=
EXTT12=
EXTT13=
EXTT14=
EXTT15=
EXTT16=
EXTT17=
EXTT18=
EXTT19=
EXTT20=
EXTT21=
EXTT22=
EXTT23=
EXTT24=
EXTT25=
EXTT26=
EXTT27=
PLAYORDER=
